<svg width="361" height="293" viewBox="0 0 361 293" fill="none" xmlns="http://www.w3.org/2000/svg">
<path d="M221.5 40.0902L222.894 39.5364L221.5 40.0902ZM360.5 234.5L344.681 241.553L358.699 251.727L360.5 234.5ZM1.36836 23.4541C38.8375 13.962 88.0225 3.92083 130.689 3.52009C152.027 3.31968 171.626 5.53274 187.283 11.3601C202.913 17.1774 214.507 26.5494 220.106 40.644L222.894 39.5364C216.893 24.4311 204.5 14.5668 188.329 8.54848C172.186 2.54014 152.174 0.318167 130.661 0.520222C87.6275 0.924408 38.1625 11.0382 0.631637 20.546L1.36836 23.4541ZM220.106 40.644C227.165 58.4132 224.722 79.5978 217.946 102.23C211.173 124.851 200.18 148.591 190.433 171.439C180.727 194.19 172.231 216.111 170.716 234.805C169.956 244.182 170.942 252.847 174.483 260.438C178.035 268.051 184.102 274.464 193.289 279.411L194.711 276.77C186.023 272.091 180.449 266.129 177.202 259.17C173.945 252.189 172.974 244.084 173.706 235.047C175.176 216.913 183.461 195.428 193.192 172.616C202.883 149.902 213.983 125.923 220.82 103.091C227.653 80.2702 230.335 58.2673 222.894 39.5364L220.106 40.644ZM193.289 279.411C224.858 296.41 258.684 294.915 287.679 285.841C316.65 276.776 340.965 260.098 353.67 246.446L351.474 244.403C339.143 257.653 315.284 274.06 286.783 282.978C258.308 291.889 225.366 293.276 194.711 276.77L193.289 279.411Z" fill="#A72C9E"/>
</svg>
